<?xml version="1.0" encoding="utf-8"?>
<?xml-stylesheet type="text/xsl" href="rss1.xsl"?>
<rss version="2.0" xmlns:atom="http://www.w3.org/2005/Atom" xmlns:content="http://purl.org/rss/1.0/modules/content/" xmlns:dc="http://purl.org/dc/elements/1.1/" xmlns:media="http://search.yahoo.com/mrss/">
<channel>
 <title>Getty</title>
 <link>http://www.gettyimg.com/</link>
 <atom:link href="http://www.gettyimg.com/" rel="self" type="application/rss+xml" />

 
                <item>
                <title><![CDATA[【PRORES SD】Beyonce &amp; Shakira "Beautiful Liar" (Closed Captioned) [PCM24 ProRes 486i] **RE-TRANSFER**]]></title>
                <link><![CDATA[https://sharemania.us/threads/beyonce-shakira-beautiful-liar-closed-captioned-pcm24-prores-486i-re-transfer.221237/]]></link>
                <description><![CDATA[<article>
<blockquote class="messageText SelectQuoteContainer ugc baseHtml">
<div style="text-align: center"><b><span style="font-size: 18px"><span style="color: rgb(0, 0, 255)"><br>
Beyonce &amp; Shakira "Beautiful Liar" (Closed Captioned) [PCM24 ProRes 486i]</span></span><br>
<br>
<span style="font-size: 22px"><span style="color: rgb(255, 0, 0)"><span style="text-decoration: underline"><i>RE-TRANSFER</i></span></span></span><br>
<span style="color: rgb(0, 0, 255)"><br>
<br>
<img src="https://i.imgur.com/siJI19p.jpg" class="bbCodeImage LbImage" alt="[​IMG]" data-url="https://i.imgur.com/siJI19p.jpg" style=""><br>
<br>
<img src="https://i.imgur.com/Sv3DLbK.png" class="bbCodeImage LbImage" alt="[​IMG]" data-url="https://i.imgur.com/Sv3DLbK.png" style=""><br>
</span></b><br>
<img src="https://i.imgur.com/PHlYimD.jpg" class="bbCodeImage LbImage" alt="[​IMG]" data-url="https://i.imgur.com/PHlYimD.jpg" style=""><br>
<b><span style="color: rgb(0, 0, 255)"><br>
<br>
<br>
<br>
</span></b>
<div class="ToggleTriggerAnchor bbCodeSpoilerContainer">
<button type="button" class="button bbCodeSpoilerButton ToggleTrigger Tooltip JsOnly" data-target="> .SpoilerTarget"><span>Spoiler</span></button>
<div class="SpoilerTarget bbCodeSpoilerText"><span style="color: rgb(0, 0, 255)">General<br>
Complete name : Beyonce &amp; Shakira "Beautiful Liar" (cc).mov<br>
Format : QuickTime<br>
Format/Info : Original Apple specifications<br>
File size : 1.80 GiB<br>
Duration : 4mn 8s<br>
Overall bit rate mode : Variable<br>
Overall bit rate : 62.1 Mbps<br>
Encoded date : UTC 2022-08-07 23:43:03<br>
Tagged date : UTC 2022-08-07 23:47:11<br>
Writing library : Apple QuickTime<br>
Media/UUID : 3216F123-37B8-4B51-AF4D-09BC8BF111B9<br>
<br>
Video<br>
ID : 1<br>
Format : ProRes<br>
Format version : Version 0<br>
Format profile : High<br>
Codec ID : apch<br>
Duration : 4mn 8s<br>
Source duration : 4mn 8s<br>
Source_Duration_FirstFrame : 90ms<br>
Bit rate mode : Variable<br>
Bit rate : 59.8 Mbps<br>
Width : 720 pixels<br>
Height : 486 pixels<br>
Display aspect ratio : 3:2<br>
Frame rate mode : Constant<br>
Frame rate : 29.970 fps<br>
Standard : NTSC<br>
Color space : YUV<br>
Chroma subsampling : 4:2:2<br>
Scan type : Interlaced<br>
Scan order : Top Field First<br>
Stored scan order : Bottom Field First<br>
Bits/(Pixel*Frame) : 5.698<br>
Stream size : 1.73 GiB (96%)<br>
Source stream size : 1.73 GiB (96%)<br>
Writing library : AJA Kona Hardware<br>
Language : English<br>
Encoded date : UTC 2022-08-07 23:47:11<br>
Tagged date : UTC 2022-08-07 23:47:11<br>
Color primaries : BT.601 NTSC<br>
Matrix coefficients : BT.601<br>
<br>
Audio<br>
ID : 5<br>
Format : PCM<br>
Format settings, Endianness : Little<br>
Format settings, Sign : Unsigned<br>
Codec ID : in24<br>
Duration : 4mn 8s<br>
Source duration : 4mn 8s<br>
Bit rate mode : Constant<br>
Bit rate : 2 304 Kbps<br>
Channel(s) : 2 channels<br>
Channel positions : Front: L R<br>
Sampling rate : 48.0 KHz<br>
Bit depth : 24 bits<br>
Stream size : 68.2 MiB (4%)<br>
Source stream size : 68.2 MiB (4%)<br>
Language : English<br>
Encoded date : UTC 2022-08-07 23:47:11<br>
Tagged date : UTC 2022-08-07 23:47:11<br>
<br>
Other<br>
ID : 6<br>
Type : Time code<br>
Format : QuickTime TC<br>
Duration : 4mn 8s<br>
Time code of first frame : 00:00:04;14<br>
Time code settings : Striped<br>
Title : Beyonce &amp; Shakira "Beautiful Liar" (cc)<br>
Language : English<br>
Encoded date : UTC 2022-08-07 23:47:11<br>
Tagged date : UTC 2022-08-07 23:47:11</span></div>
</div><b><span style="color: rgb(0, 0, 255)"><br>
<br>
<br>
<div class="bbCodeBlock bbCodeVfcHH HiddenContent">
<div class="attribution type">Hidden Content:</div>
<blockquote>You must reply before you can see the hidden data contained here.</blockquote>
</div></span></b>​</div>
<div class="messageTextEndMarker">&nbsp;</div>
</blockquote>
</article>]]></description>
                <author><![CDATA[dgol22]]></author>
                </item>

                
                <item>
                <title><![CDATA[【Cinema Center】MOVIE - Manuale d'amore (2005) [1080p]]]></title>
                <link><![CDATA[https://sharemania.us/threads/manuale-damore-2005-1080p.221236/]]></link>
                <description><![CDATA[<article>
<blockquote class="messageText SelectQuoteContainer ugc baseHtml">
<img src="https://image.tmdb.org/t/p/w1280/nBcjW4N6rxgxHSf19m5s0Vhxr4S.jpg" class="bbCodeImage LbImage" alt="[​IMG]" data-url="https://image.tmdb.org/t/p/w1280/nBcjW4N6rxgxHSf19m5s0Vhxr4S.jpg" style=""><br>
<div class="bbCodeBlock bbCodeQuote">
<aside>
<blockquote class="quoteContainer"><div class="quote"><span style="font-family: 'Georgia'">É uma história sobre os eventos pelos quais muitos casais passam na vida. É uma história de amor, observada através de um caleidoscópio de cores, retratando as quatro fases do amor: paixão, crise, traição e abandono. As fases de Manual do Amor são contadas através de quatro episódios, cada um interpretado por um casal diferente. Todas as histórias são ao mesmo tempo normais e extraordinárias, doces e irônicas, românticas e divertidas. Coloridas como um caleidoscópio, excitantes como o amor.</span></div><div class="quoteExpand">Click to expand...</div></blockquote>
</aside>
</div>Título no Brasil: Manual do amor<br>
• <b>Áudio: Italiano<br>
• Legendas: Português</b><br>
<br>
<b><img src="https://i.imgur.com/FetrvfW.jpg" class="bbCodeImage LbImage" alt="[​IMG]" data-url="https://i.imgur.com/FetrvfW.jpg" style=""> </b><br>
<div class="bbCodeBlock bbCodeVfcHH HiddenContent">
<div class="attribution type">Hidden Content:</div>
<blockquote>You must either reply or click 'Like' to see the hidden information contained here.</blockquote>
</div>
<div class="messageTextEndMarker">&nbsp;</div>
</blockquote>
</article>]]></description>
                <author><![CDATA[Giulya]]></author>
                </item>

                </channel></rss>